# xmcd
#
# Track frame offsets:
#	150
#	18242
#	28892
#	41042
#	60167
#	70967
#	90617
#	108617
#	125717
#	146717
#	163217
#	172892
#
# Disc length: 2515 seconds
# Revision: 2
# Processed by: cddbd v1.5.2PL0 Copyright (c) Steve Scherf et al.
# Submitted via: dBpowerAMP V12.0
#
DISCID=a709d10c
DTITLE=The Cleverlys - Blue
DYEAR=2019
DGENRE=Bluegrass
TTITLE0=Baby
TTITLE1=Milkshake
TTITLE2=Girl In The Sky
TTITLE3=Blue (Da Ba Dee)
TTITLE4=She's Not There
TTITLE5=Wait A Minute
TTITLE6=Party Rock Anthem
TTITLE7=Irreplaceable
TTITLE8=What's Up?
TTITLE9=I'm Gonna Be (500 Miles)
TTITLE10=Oh Death
TTITLE11=The End Of The Record
EXTD=
EXTT0=
EXTT1=
EXTT2=
EXTT3=
EXTT4=
EXTT5=
EXTT6=
EXTT7=
EXTT8=
EXTT9=
EXTT10=
EXTT11=
PLAYORDER=
